# xmcd
#
# Track frame offsets:
#	183
#	14823
#	30860
#	42880
#	56058
#	71288
#	86490
#	99123
#	113948
#	124053
#	139313
#	152155
#	167420
#	182103
#	193523
#	208828
#	224585
#	237073
#	252745
#	263405
#
# Disc length: 3654 seconds
#
# Revision: 2
# Processed by: cddbd v1.5.1PL0 Copyright (c) Steve Scherf et al.
# Submitted via: EasyCDDAExtractor 7.0.0.1
#
DISCID=180e4414
DTITLE=Various Artist - Su Majestad El Bolero
DYEAR=1900
DGENRE=Boleros
TTITLE0=Lucho Gatica - Besame Mucho
TTITLE1=Los Huasos Quincheros - Sufrir
TTITLE2=Altemar Dutra - Que Quieres Tu De Mi
TTITLE3=Leo Marini - Aquellos Ojos Verdes
TTITLE4=Raul Shaw Moreno - Cuando Tu Me Quieras
TTITLE5=Lucho Gatica - Historia De Un Amor
TTITLE6=Altemar Dutra - Sin Ti
TTITLE7=Raul Shaw Moreno - Barquita De Vela Vela
TTITLE8=Lucho Oliva - Te Seguire Donde Quieras
TTITLE9=Orquesta Huambaly - Tu Alma y La Mia
TTITLE10=Leo Marini - Vereda Tropical
TTITLE11=Raul Shaw Moreno - Osito De Felpa
TTITLE12=Los Huasos Quincheros - Nosotros
TTITLE13=Altemar Dutra - Tu Me Acostumbraste
TTITLE14=Lucho Gatica - Contigo En La Distancia
TTITLE15=Orquesta Huambaly - Somos
TTITLE16=Leo Marini - Alma Vanidosa
TTITLE17=Los Huasos Quincheros - Noche Callada
TTITLE18=Lucho Oliva - Papel De La Calle
TTITLE19=Raul Shaw Moreno - Dimelo Con Besos
EXTD=
EXTT0=
EXTT1=
EXTT2=
EXTT3=
EXTT4=
EXTT5=
EXTT6=
EXTT7=
EXTT8=
EXTT9=
EXTT10=
EXTT11=
EXTT12=
EXTT13=
EXTT14=
EXTT15=
EXTT16=
EXTT17=
EXTT18=
EXTT19=
PLAYORDER=
